{"asset":{"version":"2.0","generator":"Blockbench 4.12.6 glTF exporter"},"scenes":[{"nodes":[17],"name":"blockbench_export"}],"scene":0,"nodes":[{"rotation":[-0.25090922275205046,-0.03534989046246367,0.15347726341695955,0.9551123896151149],"translation":[0.9375,0,0],"name":"arm-right-1","mesh":0},{"rotation":[0.1197634173687278,-0.01816138727779393,-0.15637883311970163,0.9802410664853979],"translation":[1.0625,-0.6875,0.375],"name":"arm-left-2","mesh":1},{"rotation":[-0.24946374964138332,0.04441723125778413,-0.15110220504082317,0.9554910103261333],"translation":[0.9375,0,0],"name":"arm-left-1","mesh":2},{"rotation":[0.1194740318283249,0.019976682566795623,0.15615731679738543,0.9802763795394392],"translation":[1.0625,-0.6875,0.375],"name":"arm-right-2","mesh":3},{"translation":[0,2,-0.125],"name":"arm","children":[0,1,2,3]},{"rotation":[-0.08715574274765817,0,0,0.9961946980917455],"translation":[0,1.1875,-0.625],"name":"head","mesh":4},{"rotation":[-0.3826834323650898,0,0,0.9238795325112867],"translation":[0,-0.875,-0.125],"name":"body-upper","mesh":5},{"translation":[0,-0.875,-0.125],"name":"body-lower","mesh":6},{"translation":[0,0.875,0.125],"name":"body","children":[5,6,7]},{"rotation":[0.3826834323650898,0,0,0.9238795325112867],"translation":[0,0.125,0],"name":"leg-left","mesh":7},{"translation":[0.3125,-0.8125,-0.0625],"name":"foot-left","mesh":8},{"translation":[-0.3125,0.8125,0.0625],"name":"left","children":[9,10]},{"rotation":[0.3826834323650898,0,0,0.9238795325112867],"translation":[0,-0.3125,0.1875],"name":"leg-right","mesh":9},{"translation":[-0.3125,-0.8125,0],"name":"foot-right","mesh":10},{"translation":[0.3125,0.8125,0],"name":"right","children":[12,13]},{"name":"lower","children":[11,14]},{"name":"model","children":[4,8,15]},{"children":[16]}],"bufferViews":[{"buffer":0,"byteOffset":0,"byteLength":288,"target":34962,"byteStride":12},{"buffer":0,"byteOffset":288,"byteLength":288,"target":34962,"byteStride":12},{"buffer":0,"byteOffset":576,"byteLength":192,"target":34962,"byteStride":8},{"buffer":0,"byteOffset":768,"byteLength":72,"target":34963},{"buffer":0,"byteOffset":840,"byteLength":288,"target":34962,"byteStride":12},{"buffer":0,"byteOffset":1128,"byteLength":288,"target":34962,"byteStride":12},{"buffer":0,"byteOffset":1416,"byteLength":192,"target":34962,"byteStride":8},{"buffer":0,"byteOffset":1608,"byteLength":72,"target":34963},{"buffer":0,"byteOffset":1680,"byteLength":288,"target":34962,"byteStride":12},{"buffer":0,"byteOffset":1968,"byteLength":288,"target":34962,"byteStride":12},{"buffer":0,"byteOffset":2256,"byteLength":192,"target":34962,"byteStride":8},{"buffer":0,"byteOffset":2448,"byteLength":72,"target":34963},{"buffer":0,"byteOffset":2520,"byteLength":288,"target":34962,"byteStride":12},{"buffer":0,"byteOffset":2808,"byteLength":288,"target":34962,"byteStride":12},{"buffer":0,"byteOffset":3096,"byteLength":192,"target":34962,"byteStride":8},{"buffer":0,"byteOffset":3288,"byteLength":72,"target":34963},{"buffer":0,"byteOffset":3360,"byteLength":288,"target":34962,"byteStride":12},{"buffer":0,"byteOffset":3648,"byteLength":288,"target":34962,"byteStride":12},{"buffer":0,"byteOffset":3936,"byteLength":192,"target":34962,"byteStride":8},{"buffer":0,"byteOffset":4128,"byteLength":72,"target":34963},{"buffer":0,"byteOffset":4200,"byteLength":288,"target":34962,"byteStride":12},{"buffer":0,"byteOffset":4488,"byteLength":288,"target":34962,"byteStride":12},{"buffer":0,"byteOffset":4776,"byteLength":192,"target":34962,"byteStride":8},{"buffer":0,"byteOffset":4968,"byteLength":72,"target":34963},{"buffer":0,"byteOffset":5040,"byteLength":288,"target":34962,"byteStride":12},{"buffer":0,"byteOffset":5328,"byteLength":288,"target":34962,"byteStride":12},{"buffer":0,"byteOffset":5616,"byteLength":192,"target":34962,"byteStride":8},{"buffer":0,"byteOffset":5808,"byteLength":72,"target":34963},{"buffer":0,"byteOffset":5880,"byteLength":288,"target":34962,"byteStride":12},{"buffer":0,"byteOffset":6168,"byteLength":288,"target":34962,"byteStride":12},{"buffer":0,"byteOffset":6456,"byteLength":192,"target":34962,"byteStride":8},{"buffer":0,"byteOffset":6648,"byteLength":72,"target":34963},{"buffer":0,"byteOffset":6720,"byteLength":288,"target":34962,"byteStride":12},{"buffer":0,"byteOffset":7008,"byteLength":288,"target":34962,"byteStride":12},{"buffer":0,"byteOffset":7296,"byteLength":192,"target":34962,"byteStride":8},{"buffer":0,"byteOffset":7488,"byteLength":72,"target":34963},{"buffer":0,"byteOffset":7560,"byteLength":288,"target":34962,"byteStride":12},{"buffer":0,"byteOffset":7848,"byteLength":288,"target":34962,"byteStride":12},{"buffer":0,"byteOffset":8136,"byteLength":192,"target":34962,"byteStride":8},{"buffer":0,"byteOffset":8328,"byteLength":72,"target":34963},{"buffer":0,"byteOffset":8400,"byteLength":288,"target":34962,"byteStride":12},{"buffer":0,"byteOffset":8688,"byteLength":288,"target":34962,"byteStride":12},{"buffer":0,"byteOffset":8976,"byteLength":192,"target":34962,"byteStride":8},{"buffer":0,"byteOffset":9168,"byteLength":72,"target":34963},{"buffer":0,"byteOffset":9240,"byteLength":36},{"buffer":0,"byteOffset":9276,"byteLength":144},{"buffer":0,"byteOffset":9420,"byteLength":36},{"buffer":0,"byteOffset":9456,"byteLength":108},{"buffer":0,"byteOffset":9564,"byteLength":36},{"buffer":0,"byteOffset":9600,"byteLength":144},{"buffer":0,"byteOffset":9744,"byteLength":16},{"buffer":0,"byteOffset":9760,"byteLength":64},{"buffer":0,"byteOffset":9824,"byteLength":16},{"buffer":0,"byteOffset":9840,"byteLength":64}],"buffers":[{"byteLength":9904,"uri":"data:application/octet-stream;base64,"}],"accessors":[{"bufferView":0,"componentType":5126,"count":24,"max":[0,0.1875,0.1875],"min":[-0.375,-0.8125,-0.1875],"type":"VEC3"},{"bufferView":1,"componentType":5126,"count":24,"max":[1,1,1],"min":[-1,-1,-1],"type":"VEC3"},{"bufferView":2,"componentType":5126,"count":24,"max":[0.9998779296875,0.1717529296875],"min":[0.8126220703125,0.0001220703125],"type":"VEC2"},{"bufferView":3,"componentType":5123,"count":36,"max":[23],"min":[0],"type":"SCALAR"},{"bufferView":4,"componentType":5126,"count":24,"max":[-1.7625000476837158,-0.5427225232124329,0.3812499940395355],"min":[-2.1500000953674316,-1.555222511291504,-0.0062500000931322575],"type":"VEC3"},{"bufferView":5,"componentType":5126,"count":24,"max":[1,1,1],"min":[-1,-1,-1],"type":"VEC3"},{"bufferView":6,"componentType":5126,"count":24,"max":[0.9998779296875,0.3436279296875],"min":[0.8126220703125,0.1719970703125],"type":"VEC2"},{"bufferView":7,"componentType":5123,"count":36,"max":[23],"min":[0],"type":"SCALAR"},{"bufferView":8,"componentType":5126,"count":24,"max":[-1.4375,-0.375,-0.125],"min":[-1.8125,-1.375,-0.5],"type":"VEC3"},{"bufferView":9,"componentType":5126,"count":24,"max":[1,1,1],"min":[-1,-1,-1],"type":"VEC3"},{"bufferView":10,"componentType":5126,"count":24,"max":[0.9998779296875,0.1717529296875],"min":[0.8126220703125,0.0001220703125],"type":"VEC2"},{"bufferView":11,"componentType":5123,"count":36,"max":[23],"min":[0],"type":"SCALAR"},{"bufferView":12,"componentType":5126,"count":24,"max":[0.10000000149011612,0.14477747678756714,0.19374999403953552],"min":[-0.2874999940395355,-0.8677225112915039,-0.19374999403953552],"type":"VEC3"},{"bufferView":13,"componentType":5126,"count":24,"max":[1,1,1],"min":[-1,-1,-1],"type":"VEC3"},{"bufferView":14,"componentType":5126,"count":24,"max":[0.9998779296875,0.3436279296875],"min":[0.8126220703125,0.1719970703125],"type":"VEC2"},{"bufferView":15,"componentType":5123,"count":36,"max":[23],"min":[0],"type":"SCALAR"},{"bufferView":16,"componentType":5126,"count":24,"max":[0.25,0.3125,0.25],"min":[-0.25,-0.1875,-0.25],"type":"VEC3"},{"bufferView":17,"componentType":5126,"count":24,"max":[1,1,1],"min":[-1,-1,-1],"type":"VEC3"},{"bufferView":18,"componentType":5126,"count":24,"max":[0.2498779296875,0.1248779296875],"min":[0.0001220703125,0.0001220703125],"type":"VEC2"},{"bufferView":19,"componentType":5123,"count":36,"max":[23],"min":[0],"type":"SCALAR"},{"bufferView":20,"componentType":5126,"count":24,"max":[0.75,1.75,1.6875],"min":[-0.75,1,0.6875],"type":"VEC3"},{"bufferView":21,"componentType":5126,"count":24,"max":[1,1,1],"min":[-1,-1,-1],"type":"VEC3"},{"bufferView":22,"componentType":5126,"count":24,"max":[0.6248779296875,0.3436279296875],"min":[0.0001220703125,0.1251220703125],"type":"VEC2"},{"bufferView":23,"componentType":5123,"count":36,"max":[23],"min":[0],"type":"SCALAR"},{"bufferView":24,"componentType":5126,"count":24,"max":[0.4375,1.75,0.5],"min":[-0.4375,0.75,-0.25],"type":"VEC3"},{"bufferView":25,"componentType":5126,"count":24,"max":[1,1,1],"min":[-1,-1,-1],"type":"VEC3"},{"bufferView":26,"componentType":5126,"count":24,"max":[0.4061279296875,0.5623779296875],"min":[0.0001220703125,0.3438720703125],"type":"VEC2"},{"bufferView":27,"componentType":5123,"count":36,"max":[23],"min":[0],"type":"SCALAR"},{"bufferView":28,"componentType":5126,"count":24,"max":[0.1875,0.014503175392746925,0.2371392846107483],"min":[-0.1875,-0.6729968190193176,-0.1378607153892517],"type":"VEC3"},{"bufferView":29,"componentType":5126,"count":24,"max":[1,1,1],"min":[-1,-1,-1],"type":"VEC3"},{"bufferView":30,"componentType":5126,"count":24,"max":[0.8123779296875,0.1326904296875],"min":[0.6251220703125,0.0001220703125],"type":"VEC2"},{"bufferView":31,"componentType":5123,"count":36,"max":[23],"min":[0],"type":"SCALAR"},{"bufferView":32,"componentType":5126,"count":24,"max":[-0.11874999850988388,0.5062500238418579,-0.11874999850988388],"min":[-0.5062500238418579,-0.0062500000931322575,-0.5062500238418579],"type":"VEC3"},{"bufferView":33,"componentType":5126,"count":24,"max":[1,1,1],"min":[-1,-1,-1],"type":"VEC3"},{"bufferView":34,"componentType":5126,"count":24,"max":[0.8123779296875,0.2420654296875],"min":[0.6251220703125,0.1329345703125],"type":"VEC2"},{"bufferView":35,"componentType":5123,"count":36,"max":[23],"min":[0],"type":"SCALAR"},{"bufferView":36,"componentType":5126,"count":24,"max":[0.1875,0.25,-0.14174681901931763],"min":[-0.1875,-0.4375,-0.5167468190193176],"type":"VEC3"},{"bufferView":37,"componentType":5126,"count":24,"max":[1,1,1],"min":[-1,-1,-1],"type":"VEC3"},{"bufferView":38,"componentType":5126,"count":24,"max":[0.8123779296875,0.1326904296875],"min":[0.6251220703125,0.0001220703125],"type":"VEC2"},{"bufferView":39,"componentType":5123,"count":36,"max":[23],"min":[0],"type":"SCALAR"},{"bufferView":40,"componentType":5126,"count":24,"max":[0.5062500238418579,0.5062500238418579,-0.11874999850988388],"min":[0.11874999850988388,-0.0062500000931322575,-0.5062500238418579],"type":"VEC3"},{"bufferView":41,"componentType":5126,"count":24,"max":[1,1,1],"min":[-1,-1,-1],"type":"VEC3"},{"bufferView":42,"componentType":5126,"count":24,"max":[0.8123779296875,0.2420654296875],"min":[0.6251220703125,0.1329345703125],"type":"VEC2"},{"bufferView":43,"componentType":5123,"count":36,"max":[23],"min":[0],"type":"SCALAR"},{"bufferView":44,"componentType":5126,"count":9,"max":[8],"min":[0],"type":"SCALAR"},{"bufferView":45,"componentType":5126,"count":9,"max":[0.9807852506637573,0,0,1],"min":[0,0,0,0.19509032368659973],"type":"VEC4"},{"bufferView":46,"componentType":5126,"count":9,"max":[8],"min":[0],"type":"SCALAR"},{"bufferView":47,"componentType":5126,"count":9,"max":[0,2,-0.125],"min":[0,1.4375,-0.5625],"type":"VEC3"},{"bufferView":48,"componentType":5126,"count":9,"max":[8],"min":[0],"type":"SCALAR"},{"bufferView":49,"componentType":5126,"count":9,"max":[0,0,0,1],"min":[-0.258819043636322,0,0,0.9659258127212524],"type":"VEC4"},{"bufferView":50,"componentType":5126,"count":4,"max":[1.5],"min":[0],"type":"SCALAR"},{"bufferView":51,"componentType":5126,"count":4,"max":[0.08715574443340302,0,0,1],"min":[-0.08715574443340302,0,0,0.9961947202682495],"type":"VEC4"},{"bufferView":52,"componentType":5126,"count":4,"max":[1.5],"min":[0],"type":"SCALAR"},{"bufferView":53,"componentType":5126,"count":4,"max":[0.08715574443340302,0,0,1],"min":[-0.08715574443340302,0,0,0.9961947202682495],"type":"VEC4"}],"materials":[{"pbrMetallicRoughness":{"metallicFactor":0,"roughnessFactor":1},"alphaMode":"MASK","alphaCutoff":0.05,"doubleSided":true},{"pbrMetallicRoughness":{"metallicFactor":0,"roughnessFactor":1},"alphaMode":"MASK","alphaCutoff":0.05,"doubleSided":true},{"pbrMetallicRoughness":{"metallicFactor":0,"roughnessFactor":1},"alphaMode":"MASK","alphaCutoff":0.05,"doubleSided":true},{"pbrMetallicRoughness":{"metallicFactor":0,"roughnessFactor":1},"alphaMode":"MASK","alphaCutoff":0.05,"doubleSided":true}],"meshes":[{"primitives":[{"mode":4,"attributes":{"POSITION":0,"NORMAL":1,"TEXCOORD_0":2},"indices":3,"material":0}]},{"primitives":[{"mode":4,"attributes":{"POSITION":4,"NORMAL":5,"TEXCOORD_0":6},"indices":7,"material":0}]},{"primitives":[{"mode":4,"attributes":{"POSITION":8,"NORMAL":9,"TEXCOORD_0":10},"indices":11,"material":0}]},{"primitives":[{"mode":4,"attributes":{"POSITION":12,"NORMAL":13,"TEXCOORD_0":14},"indices":15,"material":0}]},{"primitives":[{"mode":4,"attributes":{"POSITION":16,"NORMAL":17,"TEXCOORD_0":18},"indices":19,"material":1}]},{"primitives":[{"mode":4,"attributes":{"POSITION":20,"NORMAL":21,"TEXCOORD_0":22},"indices":23,"material":2}]},{"primitives":[{"mode":4,"attributes":{"POSITION":24,"NORMAL":25,"TEXCOORD_0":26},"indices":27,"material":3}]},{"primitives":[{"mode":4,"attributes":{"POSITION":28,"NORMAL":29,"TEXCOORD_0":30},"indices":31,"material":0}]},{"primitives":[{"mode":4,"attributes":{"POSITION":32,"NORMAL":33,"TEXCOORD_0":34},"indices":35,"material":0}]},{"primitives":[{"mode":4,"attributes":{"POSITION":36,"NORMAL":37,"TEXCOORD_0":38},"indices":39,"material":0}]},{"primitives":[{"mode":4,"attributes":{"POSITION":40,"NORMAL":41,"TEXCOORD_0":42},"indices":43,"material":0}]}],"animations":[{"name":"animation.mutant-zombie.attack","samplers":[{"input":44,"output":45,"interpolation":"LINEAR"},{"input":46,"output":47,"interpolation":"LINEAR"},{"input":48,"output":49,"interpolation":"LINEAR"}],"channels":[{"sampler":0,"target":{"node":4,"path":"rotation"}},{"sampler":1,"target":{"node":4,"path":"translation"}},{"sampler":2,"target":{"node":8,"path":"rotation"}}]},{"name":"animation.mutant-zombie.walk","samplers":[{"input":50,"output":51,"interpolation":"LINEAR"},{"input":52,"output":53,"interpolation":"LINEAR"}],"channels":[{"sampler":0,"target":{"node":14,"path":"rotation"}},{"sampler":1,"target":{"node":11,"path":"rotation"}}]}]}