{"asset":{"version":"2.0","generator":"Blockbench 4.12.5 glTF exporter"},"scenes":[{"nodes":[6],"name":"blockbench_export"}],"scene":0,"nodes":[{"translation":[-0.1875,0.375,-0.375],"name":"leg_left_front"},{"translation":[-0.1875,0.375,0.375],"name":"leg_left_back"},{"translation":[0.1875,0.375,-0.375],"name":"leg_right_front"},{"translation":[0.1875,0.375,0.375],"name":"leg_right_back"},{"translation":[-0.125,0.5,-1],"name":"head"},{"name":"body","children":[0,1,2,3,4]},{"translation":[0,0,0.1875],"name":"body","mesh":0,"children":[5],"skin":0}],"bufferViews":[{"buffer":0,"byteOffset":0,"byteLength":2016,"target":34962,"byteStride":12},{"buffer":0,"byteOffset":2016,"byteLength":2016,"target":34962,"byteStride":12},{"buffer":0,"byteOffset":4032,"byteLength":1344,"target":34962,"byteStride":8},{"buffer":0,"byteOffset":5376,"byteLength":1344,"target":34962,"byteStride":8},{"buffer":0,"byteOffset":6720,"byteLength":2688,"target":34962,"byteStride":16},{"buffer":0,"byteOffset":9408,"byteLength":504,"target":34963},{"buffer":0,"byteOffset":9912,"byteLength":384},{"buffer":0,"byteOffset":10296,"byteLength":20},{"buffer":0,"byteOffset":10316,"byteLength":80},{"buffer":0,"byteOffset":10396,"byteLength":20},{"buffer":0,"byteOffset":10416,"byteLength":80},{"buffer":0,"byteOffset":10496,"byteLength":20},{"buffer":0,"byteOffset":10516,"byteLength":80},{"buffer":0,"byteOffset":10596,"byteLength":20},{"buffer":0,"byteOffset":10616,"byteLength":80},{"buffer":0,"byteOffset":10696,"byteLength":16},{"buffer":0,"byteOffset":10712,"byteLength":64},{"buffer":0,"byteOffset":10776,"byteLength":36},{"buffer":0,"byteOffset":10812,"byteLength":144},{"buffer":0,"byteOffset":10956,"byteLength":36},{"buffer":0,"byteOffset":10992,"byteLength":144},{"buffer":0,"byteOffset":11136,"byteLength":36},{"buffer":0,"byteOffset":11172,"byteLength":144},{"buffer":0,"byteOffset":11316,"byteLength":36},{"buffer":0,"byteOffset":11352,"byteLength":144}],"buffers":[{"byteLength":11496,"uri":"data:application/octet-stream;base64,"}],"accessors":[{"bufferView":0,"componentType":5126,"count":168,"max":[0.3125,1,0.4937499761581421],"min":[-0.3125,0.0062500000931322575,-1.125],"type":"VEC3"},{"bufferView":1,"componentType":5126,"count":168,"max":[1,1,1],"min":[-1,-1,-1],"type":"VEC3"},{"bufferView":2,"componentType":5126,"count":168,"max":[0.999755859375,0.99951171875],"min":[0.000244140625,0.00048828125],"type":"VEC2"},{"bufferView":3,"componentType":5123,"count":168,"max":[0,5,0,0],"min":[0,0,0,0],"type":"VEC4"},{"bufferView":4,"componentType":5126,"count":168,"max":[0,1,0,0],"min":[0,1,0,0],"type":"VEC4"},{"bufferView":5,"componentType":5123,"count":252,"max":[167],"min":[0],"type":"SCALAR"},{"bufferView":6,"componentType":5126,"count":6,"max":[1,0,0,0,0,1,0,0,0,0,1,0,0.1875,0,1,1],"min":[1,0,0,0,0,1,0,0,0,0,1,0,-0.1875,-0.5,-0.375,1],"type":"MAT4"},{"bufferView":7,"componentType":5126,"count":5,"max":[2],"min":[0],"type":"SCALAR"},{"bufferView":8,"componentType":5126,"count":5,"max":[0.13052618503570557,0,0,1],"min":[-0.13052618503570557,0,0,0.9914448857307434],"type":"VEC4"},{"bufferView":9,"componentType":5126,"count":5,"max":[2],"min":[0],"type":"SCALAR"},{"bufferView":10,"componentType":5126,"count":5,"max":[0.13052618503570557,0,0,1],"min":[-0.13052618503570557,0,0,0.9914448857307434],"type":"VEC4"},{"bufferView":11,"componentType":5126,"count":5,"max":[2],"min":[0],"type":"SCALAR"},{"bufferView":12,"componentType":5126,"count":5,"max":[0.13052618503570557,0,0,1],"min":[-0.13052618503570557,0,0,0.9914448857307434],"type":"VEC4"},{"bufferView":13,"componentType":5126,"count":5,"max":[2],"min":[0],"type":"SCALAR"},{"bufferView":14,"componentType":5126,"count":5,"max":[0.13052618503570557,0,0,1],"min":[-0.13052618503570557,0,0,0.9914448857307434],"type":"VEC4"},{"bufferView":15,"componentType":5126,"count":4,"max":[2],"min":[0],"type":"SCALAR"},{"bufferView":16,"componentType":5126,"count":4,"max":[0,0,0,1],"min":[0,-0.8660253882408142,0,-1],"type":"VEC4"},{"bufferView":17,"componentType":5126,"count":9,"max":[2],"min":[0],"type":"SCALAR"},{"bufferView":18,"componentType":5126,"count":9,"max":[0.13052618503570557,0,0,1],"min":[-0.13052618503570557,0,0,0.9914448857307434],"type":"VEC4"},{"bufferView":19,"componentType":5126,"count":9,"max":[2],"min":[0],"type":"SCALAR"},{"bufferView":20,"componentType":5126,"count":9,"max":[0.13052618503570557,0,0,1],"min":[-0.13052618503570557,0,0,0.9914448857307434],"type":"VEC4"},{"bufferView":21,"componentType":5126,"count":9,"max":[2],"min":[0],"type":"SCALAR"},{"bufferView":22,"componentType":5126,"count":9,"max":[0.13052618503570557,0,0,1],"min":[-0.13052618503570557,0,0,0.9914448857307434],"type":"VEC4"},{"bufferView":23,"componentType":5126,"count":9,"max":[2],"min":[0],"type":"SCALAR"},{"bufferView":24,"componentType":5126,"count":9,"max":[0.13052618503570557,0,0,1],"min":[-0.13052618503570557,0,0,0.9914448857307434],"type":"VEC4"}],"materials":[{"pbrMetallicRoughness":{"metallicFactor":0,"roughnessFactor":1,"baseColorTexture":{"index":0}},"alphaMode":"MASK","alphaCutoff":0.05,"doubleSided":true}],"textures":[{"sampler":0,"source":0,"name":"pig.png"}],"samplers":[{"magFilter":9728,"minFilter":9728,"wrapS":33071,"wrapT":33071}],"images":[{"mimeType":"image/png","uri":"data:image/png;base64,"}],"meshes":[{"primitives":[{"mode":4,"attributes":{"POSITION":0,"NORMAL":1,"TEXCOORD_0":2,"JOINTS_0":3,"WEIGHTS_0":4},"indices":5,"material":0}]}],"skins":[{"inverseBindMatrices":6,"joints":[5,0,1,2,3,4],"skeleton":5}],"animations":[{"name":"animation.pig.walk","samplers":[{"input":7,"output":8,"interpolation":"LINEAR"},{"input":9,"output":10,"interpolation":"LINEAR"},{"input":11,"output":12,"interpolation":"LINEAR"},{"input":13,"output":14,"interpolation":"LINEAR"}],"channels":[{"sampler":0,"target":{"node":0,"path":"rotation"}},{"sampler":1,"target":{"node":1,"path":"rotation"}},{"sampler":2,"target":{"node":2,"path":"rotation"}},{"sampler":3,"target":{"node":3,"path":"rotation"}}]},{"name":"animation.pig.rotation","samplers":[{"input":15,"output":16,"interpolation":"LINEAR"},{"input":17,"output":18,"interpolation":"LINEAR"},{"input":19,"output":20,"interpolation":"LINEAR"},{"input":21,"output":22,"interpolation":"LINEAR"},{"input":23,"output":24,"interpolation":"LINEAR"}],"channels":[{"sampler":0,"target":{"node":5,"path":"rotation"}},{"sampler":1,"target":{"node":0,"path":"rotation"}},{"sampler":2,"target":{"node":1,"path":"rotation"}},{"sampler":3,"target":{"node":2,"path":"rotation"}},{"sampler":4,"target":{"node":3,"path":"rotation"}}]}]}