{"asset":{"version":"2.0","generator":"Blockbench 4.12.6 glTF exporter"},"scenes":[{"nodes":[18],"name":"blockbench_export"}],"scene":0,"nodes":[{"translation":[0.3125,0.4375,0],"name":"tentacle1","mesh":0},{"rotation":[0,-0.7071067811865475,0,0.7071067811865476],"translation":[-0.3125,-0.4375,0],"name":"tentacle1","children":[0]},{"translation":[0.21875,0.4375,-0.21875],"name":"tentacle2","mesh":1},{"rotation":[0,-0.3826834323650898,0,0.9238795325112867],"translation":[-0.21875,-0.4375,0.21875],"name":"tentacle2","children":[2]},{"translation":[0,0.4375,-0.3125],"name":"tentacle3","mesh":2},{"translation":[0,-0.4375,0.3125],"name":"tentacle3","children":[4]},{"translation":[-0.21875,0.4375,-0.21875],"name":"tentacle4","mesh":3},{"rotation":[0,0.3826834323650898,0,0.9238795325112867],"translation":[0.21875,-0.4375,0.21875],"name":"tentacle4","children":[6]},{"translation":[-0.3125,0.4375,0],"name":"tentacle5","mesh":4},{"rotation":[0,0.7071067811865475,0,0.7071067811865476],"translation":[0.3125,-0.4375,0],"name":"tentacle5","children":[8]},{"translation":[-0.21875,0.4375,0.21875],"name":"tentacle6","mesh":5},{"rotation":[0,0.9238795325112867,0,0.38268343236508984],"translation":[0.21875,-0.4375,-0.21875],"name":"tentacle6","children":[10]},{"translation":[0,0.4375,0.3125],"name":"tentacle7","mesh":6},{"rotation":[0,1,0,6.123233995736766e-17],"translation":[0,-0.4375,-0.3125],"name":"tentacle7","children":[12]},{"translation":[0.21875,0.4375,0.21875],"name":"tentacle8","mesh":7},{"rotation":[0,0.9238795325112867,0,-0.3826834323650897],"translation":[-0.21875,-0.4375,-0.21875],"name":"tentacle8","children":[14]},{"name":"body","mesh":8},{"name":"body","children":[1,3,5,7,9,11,13,15,16]},{"children":[17]}],"bufferViews":[{"buffer":0,"byteOffset":0,"byteLength":288,"target":34962,"byteStride":12},{"buffer":0,"byteOffset":288,"byteLength":288,"target":34962,"byteStride":12},{"buffer":0,"byteOffset":576,"byteLength":192,"target":34962,"byteStride":8},{"buffer":0,"byteOffset":768,"byteLength":72,"target":34963},{"buffer":0,"byteOffset":840,"byteLength":288,"target":34962,"byteStride":12},{"buffer":0,"byteOffset":1128,"byteLength":288,"target":34962,"byteStride":12},{"buffer":0,"byteOffset":1416,"byteLength":192,"target":34962,"byteStride":8},{"buffer":0,"byteOffset":1608,"byteLength":72,"target":34963},{"buffer":0,"byteOffset":1680,"byteLength":288,"target":34962,"byteStride":12},{"buffer":0,"byteOffset":1968,"byteLength":288,"target":34962,"byteStride":12},{"buffer":0,"byteOffset":2256,"byteLength":192,"target":34962,"byteStride":8},{"buffer":0,"byteOffset":2448,"byteLength":72,"target":34963},{"buffer":0,"byteOffset":2520,"byteLength":288,"target":34962,"byteStride":12},{"buffer":0,"byteOffset":2808,"byteLength":288,"target":34962,"byteStride":12},{"buffer":0,"byteOffset":3096,"byteLength":192,"target":34962,"byteStride":8},{"buffer":0,"byteOffset":3288,"byteLength":72,"target":34963},{"buffer":0,"byteOffset":3360,"byteLength":288,"target":34962,"byteStride":12},{"buffer":0,"byteOffset":3648,"byteLength":288,"target":34962,"byteStride":12},{"buffer":0,"byteOffset":3936,"byteLength":192,"target":34962,"byteStride":8},{"buffer":0,"byteOffset":4128,"byteLength":72,"target":34963},{"buffer":0,"byteOffset":4200,"byteLength":288,"target":34962,"byteStride":12},{"buffer":0,"byteOffset":4488,"byteLength":288,"target":34962,"byteStride":12},{"buffer":0,"byteOffset":4776,"byteLength":192,"target":34962,"byteStride":8},{"buffer":0,"byteOffset":4968,"byteLength":72,"target":34963},{"buffer":0,"byteOffset":5040,"byteLength":288,"target":34962,"byteStride":12},{"buffer":0,"byteOffset":5328,"byteLength":288,"target":34962,"byteStride":12},{"buffer":0,"byteOffset":5616,"byteLength":192,"target":34962,"byteStride":8},{"buffer":0,"byteOffset":5808,"byteLength":72,"target":34963},{"buffer":0,"byteOffset":5880,"byteLength":288,"target":34962,"byteStride":12},{"buffer":0,"byteOffset":6168,"byteLength":288,"target":34962,"byteStride":12},{"buffer":0,"byteOffset":6456,"byteLength":192,"target":34962,"byteStride":8},{"buffer":0,"byteOffset":6648,"byteLength":72,"target":34963},{"buffer":0,"byteOffset":6720,"byteLength":288,"target":34962,"byteStride":12},{"buffer":0,"byteOffset":7008,"byteLength":288,"target":34962,"byteStride":12},{"buffer":0,"byteOffset":7296,"byteLength":192,"target":34962,"byteStride":8},{"buffer":0,"byteOffset":7488,"byteLength":72,"target":34963},{"buffer":0,"byteOffset":7560,"byteLength":12},{"buffer":0,"byteOffset":7572,"byteLength":48},{"buffer":0,"byteOffset":7620,"byteLength":12},{"buffer":0,"byteOffset":7632,"byteLength":48},{"buffer":0,"byteOffset":7680,"byteLength":12},{"buffer":0,"byteOffset":7692,"byteLength":48},{"buffer":0,"byteOffset":7740,"byteLength":12},{"buffer":0,"byteOffset":7752,"byteLength":48},{"buffer":0,"byteOffset":7800,"byteLength":12},{"buffer":0,"byteOffset":7812,"byteLength":48},{"buffer":0,"byteOffset":7860,"byteLength":12},{"buffer":0,"byteOffset":7872,"byteLength":48},{"buffer":0,"byteOffset":7920,"byteLength":12},{"buffer":0,"byteOffset":7932,"byteLength":48},{"buffer":0,"byteOffset":7980,"byteLength":12},{"buffer":0,"byteOffset":7992,"byteLength":48},{"buffer":0,"byteOffset":8040,"byteLength":4},{"buffer":0,"byteOffset":8044,"byteLength":16}],"buffers":[{"byteLength":8060,"uri":"data:application/octet-stream;base64,"}],"accessors":[{"bufferView":0,"componentType":5126,"count":24,"max":[-0.25,-0.4375,0.0625],"min":[-0.375,-1.5625,-0.0625],"type":"VEC3"},{"bufferView":1,"componentType":5126,"count":24,"max":[1,1,1],"min":[-1,-1,-1],"type":"VEC3"},{"bufferView":2,"componentType":5126,"count":24,"max":[0.874755859375,0.62451171875],"min":[0.750244140625,0.00048828125],"type":"VEC2"},{"bufferView":3,"componentType":5123,"count":36,"max":[23],"min":[0],"type":"SCALAR"},{"bufferView":4,"componentType":5126,"count":24,"max":[-0.15625,-0.4375,0.28125],"min":[-0.28125,-1.5625,0.15625],"type":"VEC3"},{"bufferView":5,"componentType":5126,"count":24,"max":[1,1,1],"min":[-1,-1,-1],"type":"VEC3"},{"bufferView":6,"componentType":5126,"count":24,"max":[0.874755859375,0.62451171875],"min":[0.750244140625,0.00048828125],"type":"VEC2"},{"bufferView":7,"componentType":5123,"count":36,"max":[23],"min":[0],"type":"SCALAR"},{"bufferView":8,"componentType":5126,"count":24,"max":[0.0625,-0.4375,0.375],"min":[-0.0625,-1.5625,0.25],"type":"VEC3"},{"bufferView":9,"componentType":5126,"count":24,"max":[1,1,1],"min":[-1,-1,-1],"type":"VEC3"},{"bufferView":10,"componentType":5126,"count":24,"max":[0.874755859375,0.62451171875],"min":[0.750244140625,0.00048828125],"type":"VEC2"},{"bufferView":11,"componentType":5123,"count":36,"max":[23],"min":[0],"type":"SCALAR"},{"bufferView":12,"componentType":5126,"count":24,"max":[0.28125,-0.4375,0.28125],"min":[0.15625,-1.5625,0.15625],"type":"VEC3"},{"bufferView":13,"componentType":5126,"count":24,"max":[1,1,1],"min":[-1,-1,-1],"type":"VEC3"},{"bufferView":14,"componentType":5126,"count":24,"max":[0.874755859375,0.62451171875],"min":[0.750244140625,0.00048828125],"type":"VEC2"},{"bufferView":15,"componentType":5123,"count":36,"max":[23],"min":[0],"type":"SCALAR"},{"bufferView":16,"componentType":5126,"count":24,"max":[0.375,-0.4375,0.0625],"min":[0.25,-1.5625,-0.0625],"type":"VEC3"},{"bufferView":17,"componentType":5126,"count":24,"max":[1,1,1],"min":[-1,-1,-1],"type":"VEC3"},{"bufferView":18,"componentType":5126,"count":24,"max":[0.874755859375,0.62451171875],"min":[0.750244140625,0.00048828125],"type":"VEC2"},{"bufferView":19,"componentType":5123,"count":36,"max":[23],"min":[0],"type":"SCALAR"},{"bufferView":20,"componentType":5126,"count":24,"max":[0.28125,-0.4375,-0.15625],"min":[0.15625,-1.5625,-0.28125],"type":"VEC3"},{"bufferView":21,"componentType":5126,"count":24,"max":[1,1,1],"min":[-1,-1,-1],"type":"VEC3"},{"bufferView":22,"componentType":5126,"count":24,"max":[0.874755859375,0.62451171875],"min":[0.750244140625,0.00048828125],"type":"VEC2"},{"bufferView":23,"componentType":5123,"count":36,"max":[23],"min":[0],"type":"SCALAR"},{"bufferView":24,"componentType":5126,"count":24,"max":[0.0625,-0.4375,-0.25],"min":[-0.0625,-1.5625,-0.375],"type":"VEC3"},{"bufferView":25,"componentType":5126,"count":24,"max":[1,1,1],"min":[-1,-1,-1],"type":"VEC3"},{"bufferView":26,"componentType":5126,"count":24,"max":[0.874755859375,0.62451171875],"min":[0.750244140625,0.00048828125],"type":"VEC2"},{"bufferView":27,"componentType":5123,"count":36,"max":[23],"min":[0],"type":"SCALAR"},{"bufferView":28,"componentType":5126,"count":24,"max":[-0.15625,-0.4375,-0.15625],"min":[-0.28125,-1.5625,-0.28125],"type":"VEC3"},{"bufferView":29,"componentType":5126,"count":24,"max":[1,1,1],"min":[-1,-1,-1],"type":"VEC3"},{"bufferView":30,"componentType":5126,"count":24,"max":[0.874755859375,0.62451171875],"min":[0.750244140625,0.00048828125],"type":"VEC2"},{"bufferView":31,"componentType":5123,"count":36,"max":[23],"min":[0],"type":"SCALAR"},{"bufferView":32,"componentType":5126,"count":24,"max":[0.375,0.5,0.375],"min":[-0.375,-0.5,-0.375],"type":"VEC3"},{"bufferView":33,"componentType":5126,"count":24,"max":[1,1,1],"min":[-1,-1,-1],"type":"VEC3"},{"bufferView":34,"componentType":5126,"count":24,"max":[0.749755859375,0.87451171875],"min":[0.000244140625,0.00048828125],"type":"VEC2"},{"bufferView":35,"componentType":5123,"count":36,"max":[23],"min":[0],"type":"SCALAR"},{"bufferView":36,"componentType":5126,"count":3,"max":[2],"min":[0],"type":"SCALAR"},{"bufferView":37,"componentType":5126,"count":3,"max":[0,-0.6830127239227295,0,0.7071067690849304],"min":[-0.1830127090215683,-0.7071067690849304,-0.1830127090215683,0.6830127239227295],"type":"VEC4"},{"bufferView":38,"componentType":5126,"count":3,"max":[2],"min":[0],"type":"SCALAR"},{"bufferView":39,"componentType":5126,"count":3,"max":[0,-0.36964380741119385,0,0.9238795042037964],"min":[-0.23911762237548828,-0.3826834261417389,-0.0990457609295845,0.8923990726470947],"type":"VEC4"},{"bufferView":40,"componentType":5126,"count":3,"max":[2],"min":[0],"type":"SCALAR"},{"bufferView":41,"componentType":5126,"count":3,"max":[0,0,0,1],"min":[-0.258819043636322,0,0,0.9659258127212524],"type":"VEC4"},{"bufferView":42,"componentType":5126,"count":3,"max":[2],"min":[0],"type":"SCALAR"},{"bufferView":43,"componentType":5126,"count":3,"max":[0,0.3826834261417389,0.0990457609295845,0.9238795042037964],"min":[-0.23911762237548828,0.36964380741119385,0,0.8923990726470947],"type":"VEC4"},{"bufferView":44,"componentType":5126,"count":3,"max":[2],"min":[0],"type":"SCALAR"},{"bufferView":45,"componentType":5126,"count":3,"max":[0,0.7071067690849304,0.1830127090215683,0.7071067690849304],"min":[-0.1830127090215683,0.6830127239227295,0,0.6830127239227295],"type":"VEC4"},{"bufferView":46,"componentType":5126,"count":3,"max":[2],"min":[0],"type":"SCALAR"},{"bufferView":47,"componentType":5126,"count":3,"max":[0,0.9238795042037964,0.23911762237548828,0.3826834261417389],"min":[-0.0990457609295845,0.8923990726470947,0,0.36964380741119385],"type":"VEC4"},{"bufferView":48,"componentType":5126,"count":3,"max":[2],"min":[0],"type":"SCALAR"},{"bufferView":49,"componentType":5126,"count":3,"max":[0,1,0.258819043636322,6.123234262925839e-17],"min":[-1.5848095630968816e-17,0.9659258127212524,0,5.914589533937914e-17],"type":"VEC4"},{"bufferView":50,"componentType":5126,"count":3,"max":[2],"min":[0],"type":"SCALAR"},{"bufferView":51,"componentType":5126,"count":3,"max":[0.0990457609295845,0.9238795042037964,0.23911762237548828,-0.36964380741119385],"min":[0,0.8923990726470947,0,-0.3826834261417389],"type":"VEC4"},{"bufferView":52,"componentType":5126,"count":1,"max":[0],"min":[0],"type":"SCALAR"},{"bufferView":53,"componentType":5126,"count":1,"max":[0,0,0,1],"min":[0,0,0,1],"type":"VEC4"}],"materials":[{"pbrMetallicRoughness":{"metallicFactor":0,"roughnessFactor":1},"alphaMode":"MASK","alphaCutoff":0.05,"doubleSided":true},{"pbrMetallicRoughness":{"metallicFactor":0,"roughnessFactor":1},"alphaMode":"MASK","alphaCutoff":0.05,"doubleSided":true},{"pbrMetallicRoughness":{"metallicFactor":0,"roughnessFactor":1},"alphaMode":"MASK","alphaCutoff":0.05,"doubleSided":true},{"pbrMetallicRoughness":{"metallicFactor":0,"roughnessFactor":1},"alphaMode":"MASK","alphaCutoff":0.05,"doubleSided":true},{"pbrMetallicRoughness":{"metallicFactor":0,"roughnessFactor":1},"alphaMode":"MASK","alphaCutoff":0.05,"doubleSided":true},{"pbrMetallicRoughness":{"metallicFactor":0,"roughnessFactor":1},"alphaMode":"MASK","alphaCutoff":0.05,"doubleSided":true},{"pbrMetallicRoughness":{"metallicFactor":0,"roughnessFactor":1},"alphaMode":"MASK","alphaCutoff":0.05,"doubleSided":true},{"pbrMetallicRoughness":{"metallicFactor":0,"roughnessFactor":1},"alphaMode":"MASK","alphaCutoff":0.05,"doubleSided":true},{"pbrMetallicRoughness":{"metallicFactor":0,"roughnessFactor":1},"alphaMode":"MASK","alphaCutoff":0.05,"doubleSided":true}],"meshes":[{"primitives":[{"mode":4,"attributes":{"POSITION":0,"NORMAL":1,"TEXCOORD_0":2},"indices":3,"material":0}]},{"primitives":[{"mode":4,"attributes":{"POSITION":4,"NORMAL":5,"TEXCOORD_0":6},"indices":7,"material":1}]},{"primitives":[{"mode":4,"attributes":{"POSITION":8,"NORMAL":9,"TEXCOORD_0":10},"indices":11,"material":2}]},{"primitives":[{"mode":4,"attributes":{"POSITION":12,"NORMAL":13,"TEXCOORD_0":14},"indices":15,"material":3}]},{"primitives":[{"mode":4,"attributes":{"POSITION":16,"NORMAL":17,"TEXCOORD_0":18},"indices":19,"material":4}]},{"primitives":[{"mode":4,"attributes":{"POSITION":20,"NORMAL":21,"TEXCOORD_0":22},"indices":23,"material":5}]},{"primitives":[{"mode":4,"attributes":{"POSITION":24,"NORMAL":25,"TEXCOORD_0":26},"indices":27,"material":6}]},{"primitives":[{"mode":4,"attributes":{"POSITION":28,"NORMAL":29,"TEXCOORD_0":30},"indices":31,"material":7}]},{"primitives":[{"mode":4,"attributes":{"POSITION":32,"NORMAL":33,"TEXCOORD_0":34},"indices":35,"material":8}]}],"animations":[{"name":"animation.squid.move","samplers":[{"input":36,"output":37,"interpolation":"LINEAR"},{"input":38,"output":39,"interpolation":"LINEAR"},{"input":40,"output":41,"interpolation":"LINEAR"},{"input":42,"output":43,"interpolation":"LINEAR"},{"input":44,"output":45,"interpolation":"LINEAR"},{"input":46,"output":47,"interpolation":"LINEAR"},{"input":48,"output":49,"interpolation":"LINEAR"},{"input":50,"output":51,"interpolation":"LINEAR"}],"channels":[{"sampler":0,"target":{"node":1,"path":"rotation"}},{"sampler":1,"target":{"node":3,"path":"rotation"}},{"sampler":2,"target":{"node":5,"path":"rotation"}},{"sampler":3,"target":{"node":7,"path":"rotation"}},{"sampler":4,"target":{"node":9,"path":"rotation"}},{"sampler":5,"target":{"node":11,"path":"rotation"}},{"sampler":6,"target":{"node":13,"path":"rotation"}},{"sampler":7,"target":{"node":15,"path":"rotation"}}]},{"name":"animation.squid.rotate","samplers":[{"input":52,"output":53,"interpolation":"LINEAR"}],"channels":[{"sampler":0,"target":{"node":17,"path":"rotation"}}]}]}